<svg width="27" height="21" viewBox="0 0 27 21" fill="none" xmlns="http://www.w3.org/2000/svg">
<path d="M22.7716 7.85675H22.1216L17.7024 2.01386C17.4588 1.69185 17.1498 1.43189 16.7983 1.25324C16.4469 1.07459 16.0619 0.981802 15.672 0.98175H6.98191C5.91876 0.98175 4.96285 1.66624 4.56797 2.71038L2.62163 7.95386C1.50201 8.26066 0.671631 9.32671 0.671631 10.6068V15.4193C0.671631 15.7991 0.962506 16.1068 1.32163 16.1068H3.27163C3.27163 18.385 5.01769 20.2318 7.17163 20.2318C9.32557 20.2318 11.0716 18.385 11.0716 16.1068H16.2716C16.2716 18.385 18.0177 20.2318 20.1716 20.2318C22.3256 20.2318 24.0716 18.385 24.0716 16.1068H26.0216C26.3808 16.1068 26.6716 15.7991 26.6716 15.4193V11.9818C26.6716 9.70355 24.9256 7.85675 22.7716 7.85675ZM7.17163 18.1693C6.09629 18.1693 5.22163 17.2441 5.22163 16.1068C5.22163 14.9694 6.09629 14.0443 7.17163 14.0443C8.24697 14.0443 9.12163 14.9694 9.12163 16.1068C9.12163 17.2441 8.24697 18.1693 7.17163 18.1693ZM10.0966 7.85675H5.42191L6.98191 3.73175H10.0966V7.85675ZM12.0466 7.85675V3.73175H15.672L18.792 7.85675H12.0466ZM20.1716 18.1693C19.0963 18.1693 18.2216 17.2441 18.2216 16.1068C18.2216 14.9694 19.0963 14.0443 20.1716 14.0443C21.247 14.0443 22.1216 14.9694 22.1216 16.1068C22.1216 17.2441 21.247 18.1693 20.1716 18.1693Z" fill="#61AE17"/>
</svg>
