<svg width="64" height="63" viewBox="0 0 64 63" fill="none" xmlns="http://www.w3.org/2000/svg">
<path d="M36.0655 1.85708C33.7902 -0.419972 30.1025 -0.419972 27.8271 1.85708L2.27209 27.4347C-0.00329566 29.7118 -0.00329566 33.3982 2.27209 35.6714L27.8349 61.2529C30.1103 63.53 33.7941 63.53 36.0655 61.2529L61.6284 35.6714C63.9038 33.3943 63.9038 29.7078 61.6284 27.4347L36.0655 1.85708ZM22.119 23.8346C21.9925 23.8363 21.867 23.8122 21.7502 23.7637C21.6334 23.7152 21.5277 23.6434 21.4396 23.5526C21.3514 23.4619 21.2827 23.3541 21.2376 23.2358C21.1926 23.1176 21.1721 22.9913 21.1774 22.8649C21.5501 16.2104 26.9915 13.8901 31.9659 13.8901C37.4426 13.8901 42.4484 16.7561 42.4484 22.6843C42.4484 26.9243 39.9572 28.9423 37.5681 30.76C34.6768 32.9546 33.6058 33.7751 33.6058 36.594V37.0062C33.6058 37.2665 33.5024 37.5161 33.3185 37.7002C33.1346 37.8843 32.8851 37.9877 32.625 37.9877H29.4473C29.1899 37.9877 28.9428 37.8865 28.7593 37.7058C28.5758 37.5251 28.4707 37.2795 28.4665 37.0219L28.4508 36.17C28.3018 32.5306 30.3928 30.2889 33.033 28.3691C35.3476 26.626 36.8188 25.4796 36.8188 22.9866C36.8188 19.7477 34.3551 18.4011 31.6638 18.4011C28.5136 18.4011 26.7482 20.2777 26.3991 22.8531C26.3285 23.391 25.8969 23.8346 25.3555 23.8346H22.119ZM31.2402 49.1296C28.9491 49.1296 27.2818 47.5827 27.2818 45.4902C27.2818 43.3231 28.9491 41.7998 31.2441 41.7998C33.6332 41.7998 35.277 43.3231 35.277 45.4902C35.277 47.5827 33.6293 49.1296 31.2402 49.1296Z" fill="#FF2122"/>
</svg>
