<svg width="31" height="30" viewBox="0 0 31 30" fill="none" xmlns="http://www.w3.org/2000/svg">
<path d="M23.6113 29.982C23.3156 29.9812 23.0208 29.9488 22.732 29.8853C17.2337 28.7479 12.1683 26.0811 8.11874 22.1918C4.15563 18.294 1.407 13.3312 0.205412 7.90385C0.063729 7.22745 0.0985035 6.52596 0.30639 5.86689C0.514275 5.20781 0.888277 4.61333 1.39241 4.14063L4.90944 0.75548C5.08908 0.585596 5.30253 0.455503 5.53584 0.37369C5.76916 0.291878 6.01711 0.260185 6.2635 0.28068C6.51898 0.307333 6.76552 0.389632 6.98579 0.521789C7.20605 0.653947 7.39468 0.832753 7.53843 1.04564L11.9347 7.54336C12.0996 7.79548 12.1792 8.09386 12.1618 8.3946C12.1443 8.69533 12.0309 8.98254 11.838 9.21395L9.63106 11.8517C10.51 13.797 11.7548 15.5552 13.2976 17.0306C14.8304 18.5594 16.6421 19.7802 18.6347 20.6267L21.3692 18.455C21.5988 18.2734 21.8783 18.1661 22.1704 18.1473C22.4626 18.1284 22.7535 18.1989 23.0046 18.3494L29.643 22.6402C29.8708 22.7762 30.0649 22.9621 30.2107 23.1837C30.3565 23.4054 30.4502 23.6572 30.4849 23.9202C30.5196 24.1833 30.4943 24.4508 30.4109 24.7027C30.3276 24.9546 30.1883 25.1843 30.0035 25.3747L26.5744 28.7687C26.1849 29.1563 25.7225 29.463 25.214 29.6713C24.7055 29.8795 24.1608 29.9851 23.6113 29.982ZM6.12282 2.02161L2.60579 5.40676C2.32218 5.67102 2.11225 6.00455 1.99662 6.37454C1.881 6.74454 1.86367 7.13826 1.94634 7.51698C3.06364 12.6098 5.63195 17.27 9.34091 20.9345C13.1518 24.5935 17.9186 27.1019 23.0925 28.1708C23.4841 28.2526 23.89 28.2361 24.2736 28.1225C24.6572 28.0089 25.0067 27.802 25.2907 27.5201L28.7198 24.1262L22.31 19.9849L19.3732 22.3237C19.2608 22.4127 19.1283 22.4728 18.9873 22.4989C18.8464 22.5249 18.7011 22.5161 18.5643 22.4732C16.1259 21.5747 13.9161 20.1486 12.093 18.2967C10.2073 16.5357 8.74356 14.3717 7.811 11.966C7.77155 11.8204 7.77024 11.6671 7.80719 11.5208C7.84415 11.3745 7.91813 11.2402 8.02202 11.1307L10.396 8.29073L6.12282 2.02161Z" fill="white"/>
</svg>
